<?xml version="1.0" encoding="UTF-8"?>
<svg id="Capa_2" data-name="Capa 2" xmlns="http://www.w3.org/2000/svg" version="1.1" viewBox="0 0 1280 1280">
  <defs>
    <style>
      .cls-1 {
        fill: none;
      }

      .cls-1, .cls-2, .cls-3, .cls-4 {
        stroke-width: 0px;
      }

      .cls-2 {
        fill: #005095;
      }

      .cls-3 {
        fill: #ff0002;
      }

      .cls-4 {
        fill: #fff;
      }
    </style>
  </defs>
  <path class="cls-3" d="M640,87.4c-221.3,0-400.7,181.7-400.7,405.8v660.2c0,21.6,17.5,39.2,39.1,39.2h723.1c21.6,0,39.2-17.5,39.2-39.1h0V493.3c0-224.1-179.4-405.8-400.7-405.8Z"/>
  <path class="cls-4" d="M420.5,276.3c15.6-4.7,35-5.1,46.9-4.7,28.5,1,56.5,8.9,82.7,19.7,99.6,41,193.6,123.2,223.2,229.7,7,25.1,9.1,48.4,3.8,74.1-4.8,23.3-15.5,46.5-31.2,65-10.5,12.4-23.4,22.6-37.8,30-8.1,4.1-26.1,8.8-24.9,20.8,1.9,18.6,33.9,13.3,45.5,11.1,23.6-4.5,44.6-16.9,62.3-33,31.5-28.9,51.8-70.1,62.5-111.1,22.7-86.7,14.5-183-29.2-260.6-61.2-108.8-128-129.6-155-133.4-9.6-.9-19.3-1.4-29.1-1.4-86.1,0-163.9,35.9-219.6,93.7Z"/>
  <path class="cls-4" d="M829.4,716.1c-6.8,36.5-97.8,65.1-180.8,20.2-68.3-37-154-144.2-191-176.8-60.2-53.1-122.6-33.4-111.7,22.2,37.6,128.5,155.1,222.2,294.1,222.2s182.4-45.1,238.6-115.5c-24.5-6.2-38.6-29.9-49.2,27.7Z"/>
  <path class="cls-2" d="M946.6,484.9c0-.9,0-1.8,0-2.7,0-1.9-.1-3.7-.2-5.6,0-1.1-.1-2.2-.2-3.2-.1-1.7-.2-3.4-.3-5,0-1.1-.2-2.3-.3-3.4-.1-1.6-.3-3.2-.5-4.8-.1-1.1-.2-2.3-.4-3.4-.2-1.6-.4-3.2-.6-4.8-.1-1.1-.3-2.3-.5-3.4-.2-1.6-.5-3.1-.7-4.7-.2-1.1-.4-2.2-.5-3.3-.3-1.6-.5-3.2-.8-4.8l-.6-3.2c-.3-1.6-.7-3.2-1-4.9-.2-1-.4-2-.6-3-.4-1.7-.8-3.4-1.2-5.1-.2-.9-.4-1.8-.7-2.7-.5-1.8-.9-3.7-1.4-5.5-.2-.7-.4-1.5-.6-2.2-.6-2.2-1.2-4.3-1.9-6.5-.1-.4-.2-.8-.3-1.2-2.4-7.8-5-15.5-8-23l-.4-.9c-.9-2.2-1.7-4.3-2.6-6.5-.2-.5-.4-.9-.6-1.4-.8-2-1.7-4-2.6-5.9l-.7-1.6c-.9-1.9-1.8-3.8-2.7-5.7l-.8-1.6c-.9-1.9-1.9-3.8-2.8-5.6-.2-.5-.5-1-.8-1.5-1-1.9-2-3.8-3-5.6l-.8-1.3c-1.1-1.9-2.2-3.9-3.3-5.8l-.6-1c-1.2-2.1-2.5-4.1-3.7-6.1l-.3-.6c-11.3-18.1-24.5-35.1-39.3-50.5h0c-1.8-1.9-3.7-3.8-5.5-5.6h-.1c-1.9-2-3.7-3.8-5.6-5.6h-.1c-1.9-1.9-3.9-3.7-5.8-5.5h0c1.3,3.6,7.2,13.3,13.3,22,26.5,37.8,46.7,80.1,56.1,125.2,9.1,44.2,7.9,93.8-6.4,136.8-11.9,35.7-41.6,66.3-79.7,72.6-63,10.4-223.7-127.8-250.9-275.6-8.3-44.7-5.3-158.5,82.3-158.2-5.8-.3-11.7-.5-17.6-.5-112.8,0-211.4,61.7-264.7,153.6h0c-28.2,64.4,39,132.8,84.1,168.6,202.9,161.3,395.4,179.8,351.1,237.8-2.5,3.3-7.1,8.9-12.4,11.2-55.7,24.2-121.1,19.3-177.2-3.9-44.5-18.4-78.3-49.8-113-82.9-9.1-8.7-29.9-26.5-45.8-10.5s7,28.1-23,68c-.5.7-1,1.4-1.5,2.1h0c1.6,1.4,3.2,2.8,4.9,4.2l.4.3c1.6,1.3,3.2,2.7,4.8,4l.6.5c1.6,1.3,3.2,2.5,4.8,3.8l.6.5c1.6,1.2,3.2,2.5,4.9,3.7.2.1.4.3.5.4,1.7,1.2,3.4,2.5,5.1,3.7l.2.2c10.9,7.7,22.2,14.7,34,20.9l.7.4c1.6.9,3.3,1.7,4.9,2.5l1.4.7c1.5.8,3.1,1.5,4.6,2.2l1.8.9c1.5.7,3,1.3,4.5,2l2.1.9c1.4.6,2.9,1.2,4.4,1.9l2.2.9c1.4.6,2.9,1.2,4.3,1.7l2.3.9,4.3,1.6,2.4.9c1.4.5,2.9,1,4.3,1.5l2.4.8c1.5.5,3,1,4.4,1.4.6.2,1.3.4,1.9.6,3.1,1,6.3,1.9,9.4,2.7.7.2,1.4.4,2.2.6,1.2.3,2.5.6,3.8.9l3.3.8c1.2.3,2.4.5,3.6.8l3.6.8,3.5.7c1.2.2,2.5.5,3.7.7l3.5.6,3.8.6,3.5.5c1.3.2,2.6.4,3.9.5,1.1.2,2.3.3,3.4.5l4.1.5,3.3.3c1.4.1,2.8.3,4.2.4l3.2.3c1.5.1,3,.2,4.5.3,1,0,2,.1,3,.2,1.7,0,3.3.1,5,.2h2.5c2.5.2,5.1.2,7.6.2,169.4,0,306.7-139.1,306.7-310.7,0-2.8,0-5.6,0-8.4Z"/>
  <path class="cls-4" d="M460.6,306c-19.1,7.7-22.6,9.1-37.9,18.1,9.5,6,13.5,8.5,24.7,15.6-7.7,26-9.1,30.6-13.7,56.6,13.7-21,16.1-24.7,32.9-44.1,15.3,10.2,19.9,13.3,36.7,24.8-5.9-22.9-7.4-29.1-11.3-50.2,20.6-17.6,25.4-21.7,47.8-37.1-24.6,2.7-29.7,3.3-51.4,8-.9-20.2-1.1-24.4.4-41.1-7,10.7-16.4,25-22,36.6-1.9,3.9-3.1,9.9-6.2,12.8"/>
  <ellipse class="cls-1" cx="640" cy="493.3" rx="306.7" ry="310.7"/>
  <g>
    <g>
      <path class="cls-4" d="M288.4,895.3v-.3c0-27.2,21.2-47.6,48.4-47.6s33.6,9.8,41.2,23.7l-25.1,14.7c-3.4-6.5-8.2-11.1-16.5-11.1s-17,9-17,20v.3c0,11.9,7,20.2,17,20.2s13.4-4.7,17.2-11.5l25.1,14.2c-7.7,13.6-20.4,24.6-43.1,24.6s-47.2-19-47.2-47.3Z"/>
      <path class="cls-4" d="M380.3,905.3v-.3c0-20.1,16.6-37.3,40.1-37.3s39.8,17,39.8,37v.3c0,20.1-16.6,37.3-40.1,37.3s-39.8-16.9-39.8-37ZM431.8,905.3v-.3c0-7-5.2-12.6-11.7-12.6s-11.5,5.6-11.5,12.4v.3c0,7,5.2,12.6,11.7,12.6s11.4-5.6,11.4-12.4h0Z"/>
      <path class="cls-4" d="M466.4,869.4h29.5v8.7c4.8-5.2,10.3-10.4,21.1-10.4,17.2,0,30.6,15,30.6,36.8v.3c0,22.5-13.5,37.5-30.3,37.5s-16.8-4.7-21.3-9.8v28.9h-29.5v-92ZM519,905.2v-.3c0-7.2-5.1-12.8-11.8-12.8s-11.8,5.6-11.8,12.8v.3c0,7,5.1,12.8,11.8,12.8s11.8-5.6,11.8-12.8Z"/>
      <path class="cls-4" d="M550.1,920.4v-.3c0-14.2,10.5-22.2,27-22.2s13.7,1.3,16.8,2.6v-1.2c0-6.5-4-10.3-13.1-10.3-6.7,0-13.4,1.4-19.6,4l-5.2-19.7c9.6-3.6,19.7-5.4,29.9-5.2,14.4,0,23.8,3,30,9.3,5.3,5.3,7.4,12.2,7.4,22.5v40.6h-29.5v-7.2c-5.2,5.8-12.6,9-20.4,8.9-13.7,0-23.3-7.9-23.3-22ZM594.2,914.3v-3c-2.2-.8-4.5-1.2-6.8-1.2-5.8,0-9.1,3.5-9.1,8v.3c-.2,3.6,2.7,6.7,6.3,6.9.2,0,.3,0,.5,0,5.2,0,9.1-4.2,9.1-11h0Z"/>
      <path class="cls-4" d="M663.4,895.3v-.3c0-27.2,21.2-47.6,48.4-47.6s33.6,9.8,41.2,23.7l-25.1,14.7c-3.4-6.5-8.2-11.1-16.5-11.1s-17,9-17,20v.3c0,11.9,7,20.2,17,20.2s13.4-4.7,17.2-11.5l25.1,14.2c-7.7,13.6-20.4,24.6-43.1,24.6-25.3,0-47.3-19-47.3-47.3Z"/>
      <path class="cls-4" d="M758.1,845.4h29.5v33.5c4.5-5.9,11.7-11.2,21.7-11.2,15,0,24.3,9.9,24.3,25.9v47h-29.5v-37.5c0-6.1-3.6-9.7-8.1-9.7s-8.4,3.5-8.4,9.7v37.5h-29.5v-95.2Z"/>
      <path class="cls-4" d="M842.4,845.4h30.6v18.9h-30.6v-18.9ZM842.9,869.4h29.5v71.2h-29.5v-71.2Z"/>
      <path class="cls-4" d="M882,845.4h29.5v95.2h-29.5v-95.2Z"/>
      <path class="cls-4" d="M918.1,905.4v-.3c0-21.2,15.2-37.4,36.6-37.4s36.9,17.6,36.9,39.2,0,3.4-.1,5h-45.7c2.1,6.3,7,9.5,13.4,9.5s9.8-2.5,14.4-7.3l15.9,12.7c-7,9.1-17,15.5-32.4,15.5-23.3,0-39-14.8-39-36.9ZM964.7,898.9c-.6-6.8-4.7-10.7-9.9-10.7s-8.5,4.2-9.4,10.7h19.2Z"/>
    </g>
    <g>
      <g>
        <path class="cls-4" d="M537.2,1149.5c-1.6-.5-2.9-1.3-3.9-2.2l2.9-3.5c1.7,1.5,3.8,2.3,6.2,2.3s1.8-.2,2.4-.5c.6-.3.9-.7.9-1.2,0-.7-.6-1.2-1.8-1.4l-4-.6c-3.9-.6-5.8-2.4-5.8-5.4s.3-2.2,1-3.1c.6-.9,1.6-1.6,2.8-2.1,1.2-.5,2.7-.7,4.5-.7s3,.2,4.5.7c1.5.4,2.7,1.1,3.7,2l-2.7,3.5c-.8-.7-1.7-1.2-2.6-1.5-.9-.3-1.8-.5-2.8-.5s-1.8.1-2.5.4c-.6.3-.9.6-.9,1,0,.6.5,1,1.6,1.2l4.5.7c1.9.3,3.3.9,4.2,1.9.9,1,1.4,2.1,1.4,3.6s-.3,2.4-1,3.3c-.7.9-1.6,1.7-2.9,2.2-1.3.5-2.8.8-4.5.8s-3.5-.3-5.2-.8Z"/>
        <path class="cls-4" d="M562.5,1131.3v18.7h-4.8v-18.7h4.8Z"/>
        <path class="cls-4" d="M588.4,1131.3v18.7h-4.8l-8.3-11.9v11.9h-4.7v-18.7h5l8.1,11.7v-11.7h4.7Z"/>
        <path class="cls-4" d="M619.7,1146.3h-7.9l-1.4,3.8h-4.9l7.3-18.7h5.9l7.4,18.7h-5l-1.4-3.8ZM618.2,1142.2l-2.5-6.7-2.4,6.7h4.9Z"/>
        <path class="cls-4" d="M647.7,1145.9v4.1h-16.7v-3.8l10.1-10.8h-9.6v-4.1h15.8v3.8l-10.1,10.7h10.5Z"/>
        <path class="cls-4" d="M658.4,1149.4c-1.3-.6-2.3-1.5-3-2.7-.7-1.2-1.1-2.5-1.1-4.1v-11.3h4.8v10.8c0,1.3.3,2.2,1,2.9.7.7,1.7,1,2.9,1s2.3-.3,3-1c.7-.7,1-1.6,1-2.9v-10.8h4.8v11.3c0,1.6-.4,3-1.1,4.1-.7,1.2-1.7,2.1-3,2.7s-2.9.9-4.7.9-3.3-.3-4.7-.9ZM664.6,1130h-4.2l2.7-4.5h5.3v.3l-3.8,4.2Z"/>
        <path class="cls-4" d="M683.6,1149.1c-1.6-.8-2.9-2-3.8-3.5-.9-1.5-1.4-3.1-1.4-4.9s.5-3.5,1.4-4.9c.9-1.5,2.2-2.6,3.8-3.5,1.6-.8,3.5-1.3,5.5-1.3s3.1.3,4.5.8c1.4.5,2.5,1.3,3.3,2.3l-3,3.3c-.7-.8-1.5-1.3-2.2-1.6-.7-.3-1.6-.5-2.5-.5s-2.1.2-3,.7c-.9.5-1.6,1.1-2.1,1.9-.5.8-.8,1.7-.8,2.7s.2,1.9.7,2.7c.5.8,1.2,1.5,2.1,1.9.9.5,1.9.7,3.1.7s1.7-.2,2.5-.5c.8-.3,1.5-.8,2.3-1.6l3,3.2c-.9,1-2,1.8-3.4,2.3-1.4.5-2.9.8-4.5.8s-3.9-.4-5.5-1.3Z"/>
        <path class="cls-4" d="M715.8,1146.3h-7.9l-1.4,3.8h-4.9l7.3-18.7h5.9l7.4,18.7h-5l-1.4-3.8ZM714.4,1142.2l-2.5-6.7-2.4,6.7h4.9Z"/>
        <path class="cls-4" d="M736.6,1143.2h-3.7v6.8h-4.7v-18.7h10.7c1.3,0,2.4.3,3.4.8,1,.5,1.7,1.3,2.2,2.2.5.9.7,1.9.7,3s-.3,2.4-.9,3.3c-.6,1-1.5,1.7-2.7,2.1l5.1,7.3h-5.5l-4.5-6.8ZM733,1139.1h5.3c.6,0,1.1-.2,1.5-.5.4-.3.6-.8.6-1.3s-.2-1-.6-1.3c-.4-.3-.9-.5-1.5-.5h-5.3v3.6Z"/>
      </g>
      <g>
        <g>
          <polygon class="cls-4" points="648.8 1013.4 636.1 1013.4 629 1025 641.6 1025 648.8 1013.4"/>
          <path class="cls-4" d="M611.9,1112.3c-10.1-7.1-22.4-10.2-33.6-9.8-11.3.5-16.4,8.9-16.4,8.9-5.1-8.9-15.2-14.3-30.7-14.2-25.1.3-50.1,11.9-69.8,11.9s-32.8-11.9-32.3-33.1c.8-37.1,32.1-70.5,55.6-85.6,13.5-8.6,24.7-11.2,32.1-10.4,5.4.6,11.9,6.8,7.8,16-6,13.4-14.3,12.3-14,5.9.2-4.2,2.9-6.8,5-8.2,1.3-.9,3.7-1.2,4.9-1.2,1.2-1,2.1-8.3-7.6-5.9-9.6,2.4-21.3,11.9-32.3,24.1-11.1,12.2-28.3,35.4-32.5,59.7-2,11.3-.6,31.8,26,31.6,22.6-.2,56-15.1,86.7-14.8,11.9.1,22.3,3.3,30.3,8.3,8,4.9,17.5,12,20.8,16.9ZM619.1,1045.1h4.6s-23.2,33.6-36.4,32.1c-7.3-.8-5.2-9.9-5.2-9.9,0,0-10.3,12.1-19.7,9.7-8.6-2.2-3.1-16.5-3.1-16.5-1,.4-19.5,21.3-32.6,16.3-13.6-5.3-6.6-22.8-4-28,2.2-4.4,4.6-8.8,4.6-8.8,0,0-2.1.6-3.4.9s-3.3.7-3.3.7c0,0-6.5,10.5-10.4,15.7-3.9,5.2-20.7,23.2-30.6,19.7-9.9-3.6-7.4-17.4-1.9-28.4,9-17.8,30.3-39.7,43.2-36.4,13,3.3,2.2,24.4,2.2,24.4,0,0,2.6.3,8.8-3.9,8.9-6.1,20.7-22.5,33.4-20.6,6,.9,11.6,7,3.9,18.7-2.4,3.7-6.5,7.1-9.7,3.8-1.9-2-.3-5.8,1.8-8.4,2.9-3.6,6.9-3.1,6.9-3.1,0,0,2.1-4.8-3.2-4.7-4.3,0-15.3,10.2-21.5,20.4-5.7,9.4-14.3,25.4-5.6,28.8,7.9,3.2,23-14.7,30-24.1,7-9.4,22.9-30.7,36.2-31.5,4.6-.3,7.3,3.9,7.3,3.9l1.5-2.4h13.3s-25.1,42-27.1,45.1c-1.5,2.5-3.6,8.1,2.1,4.9,5.7-3.1,17.5-18.4,17.5-18.4ZM515.6,1040.8c-.2,0-3.6-1-6.9-3.1-3.3-2.1-4.8-5.2-4.9-5.4-.1-.2-.2,0-.4.1-.1.2-.8,1.1-5.6,8.1-4.8,7-11.8,21.3-5.2,23.7,4.2,1.6,11.3-5.9,15.2-10.8,3.6-4.6,7.8-11.6,8-12,.2-.4,0-.5-.2-.6ZM520.9,1018.5c-3.5-2.6-12.4,3.5-12.4,9.9,0,6.5,8,8.3,9.1,8.4,0,0,.9.2,1.3-.5.2-.5,1.3-2.5,2.6-5.7,1.2-3.2,2.8-9.5-.5-12ZM588.9,1053.4c5.4-7.4,20.2-33.3,20.2-33.3,0,0-.2-1.8-2-1.9-2.1,0-5.5.6-12.3,9.1-6.8,8.5-12.1,15.3-15.9,22.4-4.2,7.7-6.1,13.1-3.6,14.6.7.4,1.7.5,2.5.3,1.6-.4,3.6-2,6.5-5.3,1.3-1.5,2.8-3.6,4.6-6ZM835.7,992.6c-9.4,6-22.3,11.5-34.8,10.3-3.1,3.3-6.5,7-9.9,11.2,21.6,4.3,40.5-9.1,50.6-20.5,6.3-7.1,9.4-13.5,9.4-13.5,0,0-6,6.6-15.3,12.6ZM798.7,1090.8c-1.8,2.9-3.8,8.4,2.1,4.9,7.2-4.2,17.5-19.8,17.5-19.8h4.6s-6.1,9.7-14.1,18.5c-7.3,8.1-16.2,15.5-22.5,14.7-7.3-.8-5-10.5-5-10.5,0,0-10.5,11.2-17.8,10.4-9.8-1.1-6.8-13.2-6.8-13.2,0,0-11.1,13.6-18.6,13.2-11.8-.7-8.9-15.1-5.6-25.2,1.8-5.4,3.4-9.7,3.4-9.7,0,0-1.2.3-3.7.7-1.3.2-3.7.3-3.7.3,0,0-4.9,8.7-8.9,13.9-3.9,5.2-20.7,23.3-30.6,19.7-9.1-3.3-6.1-17.3-.8-28.4,7.7-16.2,29.5-39.4,42.1-36.4,13,3.2.3,26.9.3,26.9,0,0,0,0,.1.1.3.1.9.2,2.5-.1,2.5-.5,4.8-1.4,4.8-1.4,0,0,13.1-27.4,27.6-45.4,14.5-18,43.3-48.9,54.7-41.4,2.8,1.8,1.5,8.2-2.2,15.9-1.6.5-3.4,1-5.1,1.3,2.5-4.5,4.2-8.4,4.6-11,1.7-9.3-20,10.3-35.4,31.3-15.5,21.1-24.7,40.1-24.7,40.1,0,0,3.1-1.8,8-5.7,5.1-4.1,12.1-10.5,19.7-18.4,5.1-5.3,11.1-11.9,16.7-19.3,1.7,0,3.3-.3,4.9-.5-6.3,8.4-12.9,16.1-18.4,21.8-6.2,6.2-12.8,13-18.7,17.9-9.2,7.8-16.4,12.2-16.4,12.2,0,0-13.6,27.3-6.2,29,4.3,1,12.9-12.1,12.9-12.1,0,0,11.1-17,17.9-24.7,9.2-10.4,17.1-16.5,24.9-16.6,4.6,0,7.3,4.8,7.3,4.8l2.2-3.3h13.3s-24.8,42.2-26.8,45.4ZM723.8,1074.2c-.2,0-3.1-1.4-6.1-3.9-3-2.5-4.5-5.4-4.6-5.6-.1-.2-.2,0-.4.1-.1.2-.7.7-5.4,7.6-4.8,7-12,21.4-5.4,23.8,4.2,1.6,11.3-5.8,15.1-10.7,3.6-4.6,6.9-10.4,7.1-10.8.2-.4,0-.5-.2-.6ZM730.5,1062.4c1.2-3.2,2.8-9.5-.5-12-3.5-2.6-12.4,3.5-12.4,9.9,0,6.5,6.3,9.4,7.8,9.8.9.2,1.2.2,1.6-.5.3-.5,2.3-4,3.5-7.2ZM807,1053.5c.3-.5.4-.9.4-.9,0,0-.2-1.8-2-1.9-2.1,0-4.9.3-12.2,8.4-7.3,8.1-11.8,15.2-15.6,22.2-4.2,7.7-5.9,13.4-3.5,14.9.7.4,1.7.5,2.5.3,1.6-.4,3.5-1.9,6.3-5.2,1.3-1.5,2.8-3.7,4.6-6.1,4.8-6.6,17.1-27.5,19.5-31.7ZM835.7,992.6c-9.4,6-22.3,11.5-34.8,10.3-3.1,3.3-6.5,7-9.9,11.2,21.6,4.3,40.5-9.1,50.6-20.5,6.3-7.1,9.4-13.5,9.4-13.5,0,0-6,6.6-15.3,12.6ZM775,1008.3c-10.2-5.2-17.7-11.6-25.5-15.6-7.4-3.8-12.2-5.4-18.2-4.6-1,.1-2.5.6-2.5.6,0,0,3.1,10.5-9.2,28.3-12.4,18-23.7,17.9-26.9,12.9-3.4-5.2,1-15.8,8.2-25.3,7.6-9.9,20.9-18.1,20.9-18.1,0,0-4.3-2.6-14.7,3.3-10.2,5.8-27.7,19.5-44,42.6-16.2,23.1-19.5,35.9-21.8,45.9-2.3,10-.2,20.8,10.9,20.8s24-17,27.7-22.9c6.8-11,11.2-27.8,2-25.5-4.6,1.1-8.2,6.2-10.6,11-2.4,5-3.3,9.7-3.3,9.7,0,0-3.8,1.4-9,5.2-5.2,3.9-8.5,7.6-8.5,7.6,0,0,0-8,6.4-21,6.4-13,18.1-18.9,24.7-19.5,6-.5,13.8,4.6,7.2,23.3-6.6,18.8-26,41.5-46.5,41.8-18.9.3-31.2-23.8-5-65.9,29-46.5,63.2-60.8,74.2-62.4,11.1-1.6,14.7,3.3,14.7,3.3,0,0,9.3-4.3,21.1-3.5,13.5.9,24,10.5,37.8,17.2-3.6,3.5-7,7.1-10.1,10.5ZM724.6,990s-7.9,3.2-17.1,13.3c-9.2,10.2-14.5,21.6-10.6,24.6,1.5,1.2,5,1.3,11.4-4.4,5-4.5,10-10.3,13.5-18.7,4.1-10,2.8-14.6,2.8-14.8Z"/>
        </g>
        <path class="cls-4" d="M817,1100.1c.7.4,1.3,1,1.7,1.7.4.7.6,1.5.6,2.4s-.2,1.7-.6,2.4c-.4.7-1,1.3-1.7,1.7-.7.4-1.5.6-2.4.6s-1.7-.2-2.4-.6c-.7-.4-1.3-1-1.7-1.7-.4-.7-.6-1.5-.6-2.4s.2-1.7.6-2.4c.4-.7,1-1.3,1.7-1.7.7-.4,1.5-.6,2.4-.6s1.7.2,2.4.6ZM816.5,1107.6c.6-.3,1.1-.8,1.4-1.4.3-.6.5-1.3.5-2s-.2-1.4-.5-2c-.3-.6-.8-1.1-1.4-1.4-.6-.3-1.2-.5-2-.5s-1.4.2-2,.5c-.6.3-1.1.8-1.4,1.4-.3.6-.5,1.3-.5,2s.2,1.4.5,2c.3.6.8,1.1,1.4,1.4.6.3,1.2.5,2,.5s1.4-.2,2-.5ZM816.4,1104.1c-.1.2-.3.4-.6.5l1.2,1.7h-1.3l-1-1.6h-.8v1.6s-1.1,0-1.1,0v-4.4s2.5,0,2.5,0c.4,0,.8.1,1,.4.3.3.4.6.4,1s0,.5-.2.8ZM813.8,1103.8h1.2c.1,0,.3,0,.3-.1,0,0,.1-.2.1-.3s0-.2-.1-.3c0,0-.2-.1-.3-.1h-1.2v.8Z"/>
      </g>
    </g>
  </g>
</svg>